<svg width="23" height="18" viewBox="0 0 23 18" fill="none" xmlns="http://www.w3.org/2000/svg">
<path fill-rule="evenodd" clip-rule="evenodd" d="M11.25 1.5H9.74998C9.33578 1.5 8.99998 1.1642 8.99998 0.75C8.99998 0.3358 9.33578 0 9.74998 0H11.25C13.5127 0 15.6027 0.241002 17.1234 1.3272C18.7057 2.4574 19.4975 4.3619 19.4999 7.2364C19.5236 7.9174 19.5234 10.2954 19.5176 12.4842C19.5152 13.3647 19.512 14.2197 19.5089 14.9304L21.2197 13.2197C21.5126 12.9268 21.9874 12.9268 22.2803 13.2197C22.5732 13.5126 22.5732 13.9875 22.2803 14.2803L19.2802 17.2803C19.1396 17.421 18.9488 17.5 18.7499 17.5C18.551 17.5 18.3602 17.421 18.2196 17.2803L15.2197 14.2803C14.9268 13.9874 14.9268 13.5126 15.2197 13.2197C15.5126 12.9268 15.9874 12.9268 16.2803 13.2197L18.0088 14.9482C18.0119 14.2333 18.0152 13.3697 18.0176 12.4803C18.0235 10.2557 18.0233 7.9015 18.0004 7.2775C18.0001 7.2683 17.9999 7.2592 17.9999 7.25C18 4.6321 17.2918 3.2908 16.2516 2.5478C15.1473 1.759 13.4873 1.5 11.25 1.5ZM3.21958 0.2197C3.51248 -0.0732001 3.98728 -0.0732001 4.28018 0.2197L7.28028 3.2197C7.57318 3.5126 7.57318 3.9874 7.28028 4.2803C6.98738 4.5732 6.51258 4.5732 6.21968 4.2803L4.49098 2.5518C4.48788 3.2666 4.48458 4.1303 4.48218 5.0198C4.47628 7.2443 4.47658 9.5986 4.49938 10.2226C4.49968 10.2317 4.49988 10.2409 4.49988 10.25C4.49988 12.8679 5.20808 14.2092 6.24838 14.9522C7.35268 15.741 9.01268 16 11.25 16H12.75C13.1642 16 13.5 16.3358 13.5 16.75C13.5 17.1642 13.1642 17.5 12.75 17.5H11.25C8.98728 17.5 6.89717 17.259 5.37647 16.1728C3.79427 15.0426 3.00238 13.1381 2.99988 10.2636C2.97618 9.5825 2.97638 7.2046 2.98218 5.0158C2.98458 4.1353 2.98788 3.2804 2.99098 2.5697L1.28028 4.2803C0.987375 4.5732 0.512575 4.5732 0.219675 4.2803C-0.073225 3.9875 -0.073225 3.5126 0.219675 3.2197L3.21958 0.2197Z" fill="#FCF8ED"/>
</svg>
