<svg width="23" height="20" viewBox="0 0 23 20" fill="none" xmlns="http://www.w3.org/2000/svg">
<path d="M5.93813 0C4.4099 0 2.88172 0.598575 1.7286 1.80537C-0.577688 4.2189 -0.574714 8.08638 1.7286 10.5015L10.532 19.7339C10.6121 19.818 10.7085 19.8849 10.8153 19.9307C10.922 19.9764 11.037 20 11.1531 20C11.2693 20 11.3842 19.9764 11.491 19.9307C11.5978 19.8849 11.6942 19.818 11.7743 19.7339C14.711 16.6606 17.6499 13.5838 20.5866 10.5104C22.8929 8.09687 22.8929 4.22788 20.5866 1.8143C18.2804 -0.599261 14.4738 -0.599313 12.1676 1.8143L11.1576 2.85999L10.1477 1.80537C8.99454 0.598581 7.46637 0 5.93813 0ZM5.93813 1.68024C7.00494 1.68024 8.07897 2.11984 8.91432 2.99405L10.5409 4.7011C10.6211 4.78518 10.7174 4.85213 10.8242 4.89787C10.931 4.9436 11.0459 4.96717 11.1621 4.96717C11.2782 4.96717 11.3932 4.9436 11.4999 4.89787C11.6067 4.85213 11.7031 4.78518 11.7832 4.7011L13.4009 3.00299C15.0716 1.25454 17.6737 1.25458 19.3443 3.00299C21.015 4.75138 21.015 7.58231 19.3443 9.3307C16.6158 12.1862 13.8861 15.0373 11.1576 17.8928L2.9709 9.32178C1.30112 7.57093 1.30024 4.7424 2.9709 2.99405C3.80621 2.11985 4.87133 1.68024 5.93813 1.68024Z" fill="#FCF8ED"/>
</svg>
