<svg width="21" height="25" viewBox="0 0 21 25" fill="none" xmlns="http://www.w3.org/2000/svg">
<path d="M17.8561 0H2.67227C1.19896 0 0 1.19896 0 2.67227V22.3259C0 23.2684 0.481009 24.1217 1.28536 24.6098C1.71382 24.8699 2.19215 25 2.67138 25C3.09271 25 3.51493 24.8993 3.90597 24.6963L9.85356 21.6035C10.111 21.4699 10.4183 21.4699 10.6757 21.6035L16.6233 24.6963C17.4588 25.1283 18.4387 25.0962 19.243 24.609C20.0474 24.1199 20.5284 23.2666 20.5284 22.3251V9.22825C20.5284 8.73566 20.1293 8.33749 19.6376 8.33749C19.1459 8.33749 18.7469 8.73566 18.7469 9.22825V22.3259C18.7469 22.7785 18.4476 23.0092 18.3184 23.0867C18.1893 23.1641 17.8454 23.3263 17.4455 23.1152L11.4979 20.0224C10.7256 19.6225 9.80457 19.6225 9.03139 20.0224L3.0838 23.1152C2.68296 23.3254 2.34002 23.165 2.21086 23.0867C2.0817 23.0083 1.78241 22.7776 1.78241 22.3259V2.67227C1.78241 2.18057 2.18236 1.78152 2.67316 1.78152H17.8561C18.3469 1.78152 18.7469 2.18057 18.7469 2.67227V5.70085C18.7469 6.19344 19.1459 6.59161 19.6376 6.59161C20.1293 6.59161 20.5284 6.19344 20.5284 5.70085V2.67227C20.5284 1.19896 19.3294 0 17.8561 0Z" fill="#FCF8ED"/>
</svg>
