<svg width="30" height="25" viewBox="0 0 30 25" fill="none" xmlns="http://www.w3.org/2000/svg">
<path d="M11.4545 3.92235L15.4909 8.99366C15.7091 9.25777 15.8909 9.38986 16.0364 9.38986C16.1819 9.38986 16.3636 9.25777 16.5818 8.99366L19.5273 5.34865C20.1455 4.58267 20.5818 3.93555 20.8364 3.40729C21.1273 2.85262 21.2727 2.48283 21.2727 2.29794C21.2727 1.90175 21.1091 1.63762 20.7818 1.50555C20.4545 1.34707 20.0909 1.24141 19.6909 1.18859C19.291 1.10935 18.9273 1.04332 18.6 0.990494C18.2727 0.911254 18.1091 0.752776 18.1091 0.515058C18.1091 0.171685 18.4182 0 19.0364 0C19.1819 0 19.6909 0.0396202 20.5636 0.11886C21.4364 0.1981 22.7819 0.23772 24.6 0.23772C25.6546 0.23772 26.5455 0.211306 27.2727 0.158479C28.0364 0.0792411 28.6182 0.0396214 29.0182 0.0396214C29.6727 0.0396214 30 0.1981 30 0.515058C30 0.884837 29.7455 1.08294 29.2364 1.10935C28.7273 1.13576 28.2182 1.17538 27.7091 1.22821C27.0182 1.28104 26.2909 1.51876 25.5273 1.94137C24.7636 2.33756 24.091 2.86582 23.5091 3.52615L17.5091 10.4596C17.3273 10.6709 17.2364 10.8426 17.2364 10.9746C17.2364 11.1331 17.3273 11.3444 17.5091 11.6086L24.3818 20.4437C25 21.2625 25.5455 21.9361 26.0182 22.4643C26.5273 22.9926 27 23.3624 27.4364 23.5737C27.691 23.7058 27.9455 23.7982 28.2 23.851C28.4909 23.8774 28.7455 23.9039 28.9636 23.9303C29.2182 23.9567 29.4182 24.0095 29.5636 24.0888C29.7091 24.1416 29.7818 24.2472 29.7818 24.4057C29.7818 24.7755 29.3637 24.9604 28.5273 24.9604C28.0546 24.9604 27.3091 24.9208 26.2909 24.8415C25.3091 24.7359 24 24.683 22.3636 24.683C20.8364 24.683 19.6546 24.7227 18.8182 24.8019C17.9819 24.8547 17.4727 24.8811 17.2909 24.8811C16.7454 24.8811 16.4727 24.7094 16.4727 24.3661C16.4727 23.9963 16.7637 23.8114 17.3454 23.8114C19.0182 23.8114 19.8545 23.4681 19.8545 22.7813C19.8545 22.4643 19.5455 21.8833 18.9273 21.038L14.4 15.1743C14.2182 14.9366 14.0546 14.8178 13.9091 14.8178C13.8364 14.8178 13.6909 14.9366 13.4727 15.1743L8.99999 20.523C8.56362 21.0513 8.25456 21.5267 8.07271 21.9493C7.89092 22.3455 7.80001 22.6096 7.80001 22.7417C7.80001 23.0586 7.98182 23.2831 8.34544 23.4152C8.74547 23.5208 9.16362 23.6133 9.59999 23.6926C10.0364 23.7718 10.4364 23.851 10.8 23.9303C11.2 24.0095 11.4 24.168 11.4 24.4057C11.4 24.8019 10.9636 25 10.0909 25C9.5091 25 8.81822 24.9604 8.01817 24.8811C7.25455 24.7755 6.38183 24.7227 5.40001 24.7227C4.3091 24.7227 3.36364 24.7623 2.56364 24.8415C1.80001 24.8944 1.21818 24.9208 0.818178 24.9208C0.272727 24.9208 0 24.7623 0 24.4453C0 24.1812 0.181819 24.0227 0.545455 23.9699C0.909093 23.8906 1.38182 23.7718 1.96364 23.6133C2.58182 23.4284 3.29091 23.1115 4.09092 22.6624C4.89091 22.187 5.72728 21.4342 6.60001 20.4041L12.2727 13.7876C12.4546 13.5763 12.5454 13.3651 12.5454 13.1537C12.5454 12.9424 12.4728 12.7443 12.3273 12.5594L4.52727 3.0111C3.61818 1.95457 2.78182 1.33386 2.01819 1.14897C1.80001 1.09614 1.56364 1.06973 1.3091 1.06973C1.09091 1.04332 0.890908 1.03011 0.709091 1.03011C0.490909 1.0037 0.327273 0.964077 0.218182 0.911254C0.0727277 0.858426 0 0.765978 0 0.633917C0 0.211306 0.381818 0 1.14546 0C1.80001 0 2.61819 0.0528264 3.60001 0.158479C4.61819 0.264132 5.83637 0.316958 7.25455 0.316958C8.8909 0.316958 10.1819 0.277339 11.1273 0.198101C12.0727 0.118861 12.691 0.079241 12.9818 0.079241C13.6 0.079241 13.9091 0.250926 13.9091 0.594297C13.9091 0.884843 13.7273 1.06973 13.3636 1.14897C13.0364 1.20179 12.6545 1.25462 12.2182 1.30745C11.7818 1.33386 11.3819 1.3999 11.0182 1.50555C10.6909 1.6112 10.5273 1.83571 10.5273 2.17908C10.5273 2.54886 10.8364 3.12995 11.4545 3.92235Z" fill="#FCF8ED"/>
</svg>
