<svg width="24" height="20" viewBox="0 0 24 20" fill="none" xmlns="http://www.w3.org/2000/svg">
<path d="M7.93168 6.84617C7.94706 6.94872 7.93424 6.86668 7.93168 6.81285C7.92655 6.73594 7.92655 6.65647 7.93168 6.57956C7.93424 6.55393 7.93681 6.52829 7.93937 6.50522C7.9445 6.43857 7.93424 6.52573 7.94193 6.48471C7.95219 6.42831 7.96244 6.36935 7.97782 6.31295C7.99321 6.25399 8.01371 6.19246 8.03679 6.13607C8.01628 6.18477 8.04704 6.11556 8.05729 6.09761C8.07524 6.06429 8.09318 6.03096 8.11113 6.0002C8.12651 5.97456 8.14446 5.94893 8.1624 5.92329C8.1342 5.95918 8.19573 5.88227 8.20598 5.87458C8.23162 5.84639 8.25725 5.82075 8.28545 5.79511C8.32134 5.76179 8.33929 5.74897 8.35467 5.73872C8.50079 5.63874 8.63153 5.58234 8.80329 5.54132C8.87251 5.52338 8.94429 5.51056 9.01607 5.49518C9.02376 5.49261 9.03401 5.49261 9.0417 5.49005C9.09297 5.47723 8.99043 5.49518 9.02632 5.49261C9.04939 5.49005 9.07246 5.48749 9.0981 5.48492C9.16475 5.4798 9.23397 5.47723 9.30062 5.4798C9.45443 5.48492 9.60825 5.51312 9.76462 5.57977C9.97996 5.67206 10.1517 5.82588 10.2953 6.00789C10.2825 5.90535 10.2696 5.80024 10.2543 5.6977C10.2414 5.71564 10.2286 5.73359 10.2158 5.75153C10.203 5.77204 10.1876 5.78999 10.1722 5.8105C10.1645 5.82331 10.1543 5.83357 10.1466 5.84638C10.1056 5.90278 10.1594 5.83357 10.1363 5.8592C10.0107 6.01558 9.88255 6.16683 9.74155 6.30783C9.55441 6.49497 9.39547 6.63083 9.19039 6.75901C9.13912 6.78977 9.08785 6.82054 9.03657 6.84874C9.01094 6.86155 8.98274 6.87437 8.9571 6.88719C8.94172 6.89488 8.92634 6.90257 8.91096 6.9077C8.9366 6.89744 8.91609 6.90513 8.90327 6.91026C8.84431 6.93077 8.78535 6.95128 8.72638 6.96666C8.69818 6.97435 8.66999 6.97948 8.64179 6.9846C8.6264 6.98717 8.60846 6.98973 8.59308 6.9923C8.62128 6.98973 8.60846 6.98973 8.58795 6.9923C8.51874 6.99742 8.44952 6.99742 8.3803 6.9923C8.34954 6.98973 8.38287 6.9923 8.38799 6.99486C8.36748 6.9923 8.34698 6.98717 8.32647 6.98204C8.28801 6.97435 8.25213 6.9641 8.21624 6.95128C8.17009 6.9359 8.18291 6.94102 8.15471 6.92821C8.12138 6.91283 8.08806 6.89488 8.05729 6.87694C7.98039 6.83336 7.92912 6.79234 7.86503 6.73594C7.61893 6.51547 7.2549 6.87694 7.50357 7.0974C7.75992 7.32812 8.05986 7.47937 8.4085 7.50757C8.70588 7.53064 9.00068 7.44092 9.26473 7.31018C9.7313 7.07689 10.1261 6.6898 10.4517 6.28988C10.5388 6.18221 10.6234 6.07454 10.7003 5.95918C10.7695 5.85664 10.7285 5.73615 10.6593 5.64899C10.2107 5.07732 9.4852 4.8748 8.79047 5.02348C8.40594 5.10552 8.04191 5.26702 7.79068 5.57721C7.58304 5.83357 7.4728 6.13863 7.43179 6.46164C7.41128 6.63596 7.41128 6.81028 7.43691 6.9846C7.45742 7.12047 7.62918 7.19738 7.75223 7.16405C7.89835 7.12047 7.95475 6.98204 7.93168 6.84617Z" fill="#FCF8ED"/>
<path d="M7.89598 12.8936C7.191 13.0551 6.51679 12.8756 5.92204 12.4885C5.67338 12.327 5.4606 12.1476 5.24013 11.922C5.14785 11.8271 5.05556 11.7297 4.97096 11.6272C4.93507 11.5862 4.90174 11.5426 4.86586 11.499C4.86073 11.4913 4.81202 11.4298 4.83766 11.4631C4.86073 11.4939 4.81202 11.4272 4.80433 11.417C4.73768 11.3272 4.67102 11.235 4.61206 11.1401C4.49414 11.258 4.37878 11.3734 4.26086 11.4913C5.46573 12.0117 6.79365 12.2014 8.06774 11.8246C8.86757 11.5887 9.60844 11.1581 10.2186 10.5915C10.3339 10.4838 10.4493 10.3736 10.5493 10.2506C10.4031 10.189 10.257 10.1301 10.1109 10.0685C10.1109 10.0737 10.1083 10.0814 10.1083 10.0839C10.1109 10.089 10.1058 10.0993 10.1058 10.1044C10.1058 10.1275 10.1186 10.0198 10.1109 10.0737C10.1006 10.1352 10.0904 10.1967 10.0801 10.2582C10.0391 10.4685 9.98272 10.6761 9.9135 10.8786C9.82121 11.1529 9.73662 11.3478 9.57511 11.6195C9.40079 11.9117 9.22647 12.1322 8.95986 12.3629C8.66761 12.6142 8.29077 12.7987 7.89598 12.8936C7.57554 12.9705 7.71141 13.4653 8.03185 13.3883C8.82143 13.1986 9.47513 12.7064 9.92119 12.0322C10.2314 11.5605 10.4416 11.0145 10.5595 10.4633C10.5877 10.3326 10.6108 10.2018 10.6236 10.0685C10.6441 9.85577 10.3211 9.71733 10.1852 9.88653C10.1109 9.97882 10.0263 10.066 9.93914 10.148C9.84429 10.2403 9.74431 10.33 9.64177 10.4146C9.61357 10.4377 9.58537 10.4608 9.55717 10.4838C9.53922 10.4967 9.50077 10.5274 9.54179 10.4967C9.52384 10.5095 9.5059 10.5249 9.48795 10.5377C9.41617 10.5915 9.34439 10.6428 9.27005 10.694C8.91115 10.935 8.53431 11.1273 8.1549 11.258C7.65757 11.4324 7.1705 11.5144 6.65266 11.5144C5.91948 11.5144 5.19143 11.3375 4.51977 11.0478C4.41211 11.0017 4.29675 11.0017 4.20958 11.0888C4.13011 11.1683 4.11217 11.3016 4.16857 11.399C4.35058 11.7015 4.58386 11.981 4.8274 12.2347C5.31704 12.7449 5.92461 13.1781 6.6142 13.3653C7.07821 13.4935 7.56272 13.496 8.03185 13.3883C8.35486 13.314 8.21899 12.8192 7.89598 12.8936Z" fill="#FCF8ED"/>
<path d="M3.11488 7.56397C3.1482 7.36914 3.20717 7.19738 3.31484 7.03075C3.35585 6.96923 3.37892 6.93846 3.44045 6.87437C3.46865 6.84617 3.49685 6.81797 3.52505 6.79234C3.54043 6.77952 3.55581 6.76414 3.57375 6.75132C3.60708 6.72312 3.56863 6.75389 3.58914 6.7385C3.69168 6.6616 3.80448 6.59751 3.9224 6.54624C3.96085 6.52829 3.87626 6.56162 3.93522 6.54111C3.95573 6.53342 3.97367 6.52573 3.99162 6.5206C4.01981 6.51035 4.04801 6.50266 4.07621 6.49497C4.36333 6.41293 4.61712 6.37704 4.87861 6.4642C4.89399 6.46933 4.90937 6.47446 4.92475 6.48215C4.96833 6.49753 4.87348 6.45651 4.9427 6.48984C4.97089 6.50266 4.99909 6.51804 5.02729 6.53342C5.05806 6.55136 5.08625 6.56931 5.11702 6.58982C5.1324 6.60007 5.14778 6.61033 5.16316 6.62314C5.13496 6.60264 5.15803 6.61802 5.17342 6.63084C5.21956 6.67185 5.26314 6.71287 5.30672 6.75645C5.32979 6.78208 5.35286 6.80772 5.37337 6.83336C5.38106 6.84361 5.38875 6.85386 5.39901 6.86412C5.37337 6.83079 5.38875 6.8513 5.40414 6.87437C5.4631 6.96153 5.5195 7.0487 5.56308 7.14355C5.57077 7.15893 5.57846 7.17687 5.58615 7.19225C5.61435 7.25122 5.57333 7.15636 5.58102 7.17687C5.58358 7.18969 5.59128 7.19994 5.59384 7.21276C5.59384 7.16662 5.59384 7.12304 5.59384 7.07689C5.50668 7.31531 5.36825 7.48963 5.15803 7.59986C5.13496 7.61268 5.10933 7.62293 5.08625 7.63575C5.05036 7.65113 5.12214 7.62293 5.08369 7.63575C5.06831 7.64088 5.05549 7.646 5.04011 7.65113C4.97859 7.67164 4.9145 7.68958 4.85041 7.69984C4.83759 7.7024 4.76837 7.71266 4.79145 7.71009C4.81452 7.70753 4.7453 7.71522 4.73248 7.71522C4.66583 7.72035 4.59661 7.72035 4.52996 7.72035C4.471 7.71778 4.40948 7.71522 4.35051 7.71009C4.34026 7.71009 4.24541 7.69728 4.29924 7.70497C4.26335 7.69984 4.22746 7.69471 4.19157 7.68702C4.07109 7.66651 3.95316 7.63831 3.83524 7.60499C3.72244 7.57422 3.61221 7.53833 3.50454 7.49732C3.45583 7.47937 3.40712 7.46143 3.35842 7.44092C3.33791 7.43323 3.31996 7.42554 3.29945 7.41785C3.22767 7.38965 3.30458 7.42041 3.27638 7.40759C3.18153 7.36658 3.08668 7.323 2.99439 7.27429C2.70471 7.11791 2.44323 7.56141 2.73547 7.71778C3.07386 7.8998 3.44814 8.03823 3.82242 8.13052C4.44536 8.28433 5.17085 8.3074 5.681 7.85622C5.80661 7.74342 5.91428 7.59986 5.98863 7.44861C6.05015 7.32556 6.12193 7.18969 6.08092 7.05126C6.02195 6.85899 5.89634 6.67185 5.77329 6.51547C5.58102 6.27194 5.33236 6.08223 5.03755 5.97713C4.68378 5.85151 4.31206 5.89509 3.95829 5.99507C3.27895 6.18734 2.74316 6.72056 2.62011 7.4281C2.59704 7.56397 2.656 7.70497 2.79956 7.74342C2.92517 7.77675 3.09181 7.7024 3.11488 7.56397Z" fill="#FCF8ED"/>
<path d="M11.4079 0.552611C11.2721 0.260365 11.0285 0.0450262 10.703 0.00657283C10.3928 -0.0318806 10.08 0.103988 9.82366 0.268056C9.48014 0.485958 9.19815 0.773077 8.92385 1.07045C8.74953 1.25759 8.6111 1.3627 8.40345 1.496C7.47031 2.08562 6.28339 2.31634 5.18618 2.4035C4.59913 2.44964 4.00695 2.45477 3.41989 2.40094C2.98152 2.35992 2.50983 2.28558 2.06633 2.11638C2.04582 2.10869 2.02788 2.101 2.00737 2.09331C2.06633 2.11638 1.9843 2.08306 1.97404 2.07793C1.87406 2.03435 1.77409 1.99077 1.66898 1.95488C1.5126 1.90104 1.35623 1.86259 1.19216 1.84208C0.958874 1.81388 0.720463 1.83952 0.510251 1.94975C0.233386 2.09587 0.0667551 2.39581 0.0180475 2.69831C-0.002461 2.82136 0.00010254 2.93416 0.00010254 3.05977C0.00522966 3.46481 0.0154839 3.86986 0.0359924 4.27234C0.0718822 4.99269 0.130844 5.71306 0.220569 6.42829C0.374382 7.62547 0.605103 8.81496 0.981946 9.96344C1.27419 10.8504 1.64591 11.7169 2.13811 12.5116C2.52777 13.1422 2.99178 13.7344 3.53269 14.2446C3.97875 14.6624 4.47608 15.029 5.01442 15.3187C5.46048 15.5571 5.93474 15.7494 6.42182 15.8801C6.80379 15.9827 7.19601 16.0519 7.5908 16.0852C7.82921 16.1057 8.06762 16.1109 8.30603 16.098C8.6675 16.0775 8.99307 15.9135 9.31608 15.7596C10.1851 15.352 10.9747 14.7599 11.5746 14.0062C12.1386 13.2986 12.541 12.4809 12.7923 11.6118C13.0461 10.7376 13.1563 9.81988 13.1717 8.90981C13.1896 7.99206 13.1101 7.07687 12.9743 6.16937C12.8512 5.34903 12.6795 4.53638 12.4667 3.73399C12.2975 3.09053 12.1027 2.45477 11.8873 1.8267C11.7617 1.46524 11.631 1.10634 11.4848 0.752569C11.4643 0.685916 11.4361 0.619263 11.4079 0.552611C11.3541 0.424433 11.167 0.396234 11.0567 0.460323C10.926 0.537229 10.9106 0.683353 10.9644 0.811531C10.9875 0.865365 10.9593 0.798713 10.9542 0.791022C10.9696 0.826912 10.985 0.865365 11.0003 0.901255C11.0567 1.03969 11.1106 1.17812 11.1644 1.31911C11.3515 1.81388 11.5207 2.31378 11.6771 2.81623C11.895 3.52634 12.0873 4.2467 12.2411 4.97219C12.3283 5.38236 12.4052 5.79765 12.4693 6.21295C12.5077 6.45905 12.5231 6.57954 12.5513 6.81282C12.5769 7.03072 12.6 7.25119 12.6154 7.46909C12.6846 8.34839 12.6872 9.23538 12.5795 10.1096C12.5769 10.1378 12.5718 10.166 12.5692 10.1916C12.5744 10.1429 12.5667 10.2172 12.5641 10.23C12.5564 10.2864 12.5487 10.3403 12.5385 10.3967C12.5205 10.5018 12.5026 10.6069 12.4821 10.7146C12.4411 10.9273 12.3923 11.1401 12.3334 11.3478C12.277 11.5554 12.2129 11.7605 12.1386 11.963C12.0565 12.1912 12.0078 12.3014 11.9078 12.5142C11.8155 12.7064 11.713 12.8961 11.6028 13.0782C11.4977 13.2499 11.3567 13.4576 11.2516 13.5934C11.1439 13.7319 10.9773 13.9241 10.8337 14.0703C10.6773 14.2318 10.5107 14.383 10.3364 14.524C10.2364 14.606 10.2005 14.6317 10.0877 14.7137C9.99286 14.7804 9.898 14.847 9.79803 14.9085C9.59038 15.0393 9.37504 15.1598 9.15457 15.2674C8.9136 15.3854 8.71877 15.4648 8.46754 15.5571C8.31885 15.611 8.51881 15.5648 8.46241 15.5699C8.31629 15.5828 8.17273 15.5904 8.02661 15.5904C7.8933 15.5904 7.75743 15.5828 7.62413 15.5725C7.54466 15.5674 7.46519 15.5597 7.38572 15.5494C7.36521 15.5469 7.3447 15.5443 7.32675 15.5417C7.26523 15.534 7.39597 15.552 7.31906 15.5417C7.27292 15.534 7.22934 15.5289 7.18319 15.5212C6.7679 15.452 6.35773 15.3418 5.96294 15.1931C5.90911 15.1726 5.85271 15.1495 5.79887 15.129C5.78862 15.1239 5.73735 15.1034 5.78093 15.1213C5.82195 15.1393 5.77837 15.1213 5.76811 15.1162C5.73735 15.1034 5.70659 15.0906 5.67582 15.0752C5.56046 15.0239 5.4451 14.9675 5.33231 14.9085C5.09133 14.7829 4.85805 14.6419 4.63502 14.4856C4.57349 14.4445 4.51453 14.401 4.45557 14.3548C4.42737 14.3343 4.39917 14.3138 4.37097 14.2907C4.36841 14.2882 4.4043 14.3189 4.36584 14.2856C4.3479 14.2728 4.33252 14.2574 4.31457 14.2446C4.19665 14.1497 4.08129 14.0497 3.96849 13.9472C3.72239 13.7216 3.49167 13.4806 3.27633 13.2243C3.21737 13.1551 3.16097 13.0833 3.10457 13.0115C3.09175 12.9936 3.06868 12.9654 3.09688 13.0013C3.0815 12.9833 3.06868 12.9654 3.05587 12.9449C3.02767 12.9064 2.99947 12.8705 2.97127 12.8321C2.85847 12.6782 2.7508 12.5193 2.64826 12.3578C2.42523 12.004 2.22271 11.6374 2.04326 11.258C1.94072 11.0453 1.85868 10.853 1.78434 10.6659C1.69205 10.4403 1.60745 10.2095 1.52798 9.97882C1.35366 9.46867 1.2101 8.95083 1.08705 8.42786C0.794806 7.16147 0.635865 5.86943 0.561522 4.57483C0.53845 4.19286 0.523069 3.80833 0.515378 3.42636C0.510251 3.2264 0.497433 3.02645 0.510251 2.82649C0.510251 2.81111 0.520505 2.74958 0.512814 2.80598C0.50256 2.86494 0.517942 2.78291 0.520505 2.76753C0.533323 2.71113 0.551268 2.65729 0.569213 2.60346C0.571776 2.59833 0.541014 2.65729 0.569213 2.60859C0.576903 2.59577 0.58203 2.58295 0.589721 2.57013C0.605102 2.53937 0.625611 2.51117 0.643556 2.48553C0.599975 2.54962 0.666628 2.46503 0.684573 2.44708C0.694827 2.43683 0.707645 2.42657 0.720463 2.41632C0.676882 2.45221 0.712772 2.42401 0.735844 2.40863C0.751225 2.40094 0.766607 2.39325 0.781988 2.38299C0.815314 2.36248 0.740971 2.39325 0.794806 2.37786C0.84095 2.36505 0.881967 2.35223 0.930675 2.34454C0.969128 2.33685 0.887094 2.3471 0.928111 2.34454C0.938365 2.34454 0.951183 2.34198 0.961437 2.34198C0.984509 2.34198 1.01014 2.33941 1.03322 2.33941C1.06398 2.33941 1.09218 2.34197 1.12294 2.34454C1.17165 2.3471 1.14345 2.34454 1.19472 2.35479C1.47671 2.40863 1.72281 2.53424 1.98942 2.62909C2.44574 2.79316 2.93794 2.8675 3.41733 2.91109C4.58375 3.01875 5.79375 2.92134 6.93197 2.63422C7.47031 2.49835 8.00353 2.31121 8.48805 2.03947C8.70339 1.91899 8.90847 1.77799 9.09305 1.61649C9.34684 1.39602 9.55192 1.12685 9.81084 0.911509C10.0211 0.734624 10.28 0.54492 10.5594 0.514158C10.5235 0.519285 10.603 0.514158 10.6132 0.514158C10.6261 0.514158 10.685 0.519285 10.6696 0.516721C10.7132 0.524412 10.7235 0.529539 10.7747 0.557738C10.8081 0.575683 10.8337 0.596192 10.8747 0.650026C10.8952 0.675662 10.9414 0.762823 10.967 0.814094C11.026 0.939708 11.2054 0.970471 11.3182 0.906382C11.4438 0.829475 11.4669 0.680789 11.4079 0.552611Z" fill="#FCF8ED"/>
<path d="M11.0899 16.2364C11.6565 17.6592 12.6665 18.8897 14.0227 19.6203C14.2636 19.7511 14.5302 19.8946 14.7969 19.9613C14.9302 19.9946 15.084 19.9895 15.2198 19.9946C15.3762 19.9997 15.5326 20.0023 15.689 19.9972C15.9992 19.9895 16.3094 19.9587 16.617 19.9075C17.7219 19.7254 18.7422 19.2204 19.5856 18.4872C20.4008 17.7797 21.0366 16.8748 21.5313 15.9211C22.0363 14.9495 22.4106 13.9113 22.6977 12.8577C22.9515 11.9271 23.1387 10.9786 23.272 10.0224C23.3668 9.35072 23.4386 8.6765 23.4771 7.99972C23.4976 7.63569 23.5488 7.21783 23.4207 6.87175C23.3335 6.63591 23.1797 6.42826 22.949 6.31803C22.6362 6.16678 22.2799 6.18728 21.9492 6.25906C21.5057 6.35648 21.1827 6.55387 20.7623 6.66154C20.4162 6.7487 20.1034 6.77947 19.7368 6.78459C18.9242 6.79741 18.1115 6.66411 17.3296 6.44877C16.599 6.24881 15.8864 5.97707 15.2429 5.57203C14.9917 5.41309 14.8045 5.27466 14.5995 5.04394C14.379 4.79784 14.0175 5.16186 14.238 5.4054C14.6764 5.89504 15.2916 6.22574 15.8889 6.48209C16.6426 6.80766 17.4348 7.03839 18.2423 7.17169C19.0242 7.29987 19.8266 7.35114 20.611 7.21527C20.9802 7.15118 21.3032 7.01019 21.6518 6.88201C21.8338 6.81536 22.0748 6.74358 22.2363 6.72563C22.3106 6.71538 22.3876 6.71281 22.4645 6.71538C22.4798 6.71538 22.5798 6.72563 22.5234 6.71794C22.5593 6.72307 22.5926 6.73076 22.626 6.73845C22.6516 6.74614 22.6772 6.75383 22.7003 6.76152C22.6388 6.73845 22.7157 6.76921 22.7311 6.7769C22.7541 6.78972 22.7746 6.8051 22.7977 6.81792C22.7465 6.78459 22.8028 6.82561 22.8234 6.84099C22.8387 6.85637 22.8516 6.87175 22.8669 6.8897C22.8208 6.83843 22.8644 6.88457 22.8746 6.90252C22.8874 6.92303 22.9003 6.94353 22.9105 6.96404C22.9156 6.97686 22.9208 6.98711 22.9285 6.99993C22.949 7.04095 22.9131 6.95892 22.9233 6.98968C22.9387 7.0307 22.9515 7.07428 22.9618 7.11786C22.9669 7.14093 22.972 7.164 22.9772 7.18707C22.9926 7.26654 22.9772 7.15375 22.9823 7.21014C22.99 7.29218 22.9926 7.37678 22.99 7.45881C22.9874 7.54341 22.9849 7.628 22.9823 7.7126C22.9592 8.24839 22.9131 8.78161 22.8541 9.31226C22.8439 9.40455 22.8336 9.4994 22.8208 9.59169C22.8157 9.6404 22.808 9.69167 22.8028 9.74038C22.7977 9.77114 22.7926 9.81472 22.8003 9.75576C22.7952 9.78396 22.7926 9.81216 22.7875 9.84035C22.7567 10.0557 22.7259 10.271 22.6901 10.4838C22.6131 10.9478 22.5234 11.4118 22.4183 11.8707C22.3055 12.3706 22.1722 12.8679 22.021 13.3601C21.9441 13.6114 21.8595 13.86 21.7697 14.1087C21.7236 14.2343 21.6774 14.3599 21.6262 14.4855C21.6005 14.547 21.5775 14.6111 21.5518 14.6727C21.5416 14.7009 21.5288 14.7291 21.5185 14.7547C21.5006 14.8008 21.5134 14.765 21.5185 14.7547C21.5108 14.7752 21.5006 14.7957 21.4929 14.8162C21.2827 15.3059 21.0442 15.7852 20.7699 16.2416C20.6341 16.4672 20.4905 16.6851 20.3393 16.8978C20.3008 16.9517 20.2624 17.0055 20.2213 17.0568C20.2111 17.0696 20.1624 17.1337 20.1957 17.0927C20.1726 17.1209 20.1496 17.1491 20.1291 17.1798C20.047 17.2824 19.9624 17.3823 19.8753 17.4798C19.7061 17.672 19.5266 17.8566 19.3369 18.0284C19.2421 18.1155 19.1421 18.2001 19.0421 18.2796C19.0165 18.3001 18.9908 18.3206 18.9652 18.3411C19.0088 18.3078 18.9421 18.3591 18.9319 18.3668C18.8806 18.4052 18.8268 18.4437 18.7755 18.4821C18.5627 18.6308 18.3397 18.7667 18.1064 18.8872C17.9885 18.9487 17.868 19.0051 17.7475 19.0563C17.7962 19.0358 17.7167 19.0692 17.7065 19.0743C17.6783 19.0845 17.6501 19.0974 17.6245 19.1076C17.5578 19.1333 17.4912 19.1563 17.4245 19.1794C17.1656 19.2691 16.9015 19.3383 16.6324 19.387C16.5631 19.3999 16.4914 19.4127 16.4196 19.4229C16.4042 19.4255 16.3196 19.4383 16.3683 19.4306C16.3273 19.4358 16.2888 19.4409 16.2478 19.446C16.0991 19.4614 15.9505 19.4742 15.8018 19.4793C15.6454 19.487 15.4916 19.487 15.3352 19.4819C15.2609 19.4793 15.184 19.4768 15.1096 19.4716C15.0686 19.4691 15.0276 19.4665 14.9891 19.464C14.9712 19.4614 14.9532 19.4614 14.9353 19.4588C14.902 19.4588 14.8968 19.4409 14.9481 19.464C14.8866 19.4358 14.8174 19.4204 14.7558 19.3947C14.7328 19.3845 14.6302 19.3409 14.7148 19.3794C14.6764 19.3614 14.6379 19.346 14.5995 19.3281C14.5072 19.2871 14.4174 19.2409 14.3277 19.1922C14.0944 19.0692 13.8688 18.9282 13.6535 18.7744C13.5228 18.6795 13.4407 18.6154 13.3074 18.5026C13.1767 18.3924 13.0511 18.2745 12.9306 18.154C12.6614 17.8822 12.4204 17.5874 12.2077 17.2695C11.9641 16.9004 11.7565 16.5082 11.5924 16.098C11.5411 15.9698 11.4206 15.8801 11.2771 15.9186C11.1463 15.9544 11.0387 16.1057 11.0899 16.2364Z" fill="#FCF8ED"/>
<path d="M13.9151 10.0506C14.1202 9.75071 14.4047 9.59177 14.7457 9.53024C14.7534 9.52768 14.797 9.52255 14.7508 9.53024C14.7662 9.52768 14.7816 9.52768 14.797 9.52512C14.8252 9.52255 14.8559 9.51999 14.8841 9.51999C14.9405 9.51742 14.9969 9.51742 15.0508 9.52255C15.0713 9.52255 15.0892 9.52512 15.1097 9.52768C15.1687 9.53281 15.1251 9.52255 15.102 9.52512C15.1148 9.52255 15.1328 9.53024 15.1456 9.53281C15.3122 9.55844 15.4994 9.59689 15.6276 9.66098C15.7711 9.73533 15.825 9.77891 15.9301 9.89683C15.9403 9.90709 15.9506 9.9199 15.9608 9.93272C15.9326 9.89683 15.9557 9.92759 15.9608 9.93529C15.9788 9.96348 15.9993 9.98912 16.0147 10.0199C16.03 10.0455 16.0429 10.0686 16.0557 10.0942C16.0634 10.107 16.0685 10.1199 16.0736 10.1327C16.0993 10.1814 16.0762 10.1327 16.0813 10.1481C16.1223 10.2506 16.1505 10.3583 16.171 10.4685C16.1813 10.5172 16.1787 10.5223 16.1762 10.489C16.1787 10.5146 16.1813 10.5377 16.1839 10.5634C16.1864 10.6018 16.189 10.6428 16.189 10.6813C16.189 10.7197 16.189 10.7582 16.1864 10.7941C16.2121 10.7326 16.2377 10.6736 16.2608 10.6121C16.1608 10.7146 16.0813 10.7761 15.9506 10.8428C15.9121 10.8607 15.8942 10.8684 15.8301 10.8864C15.8019 10.8941 15.7737 10.8992 15.7455 10.9069C15.6891 10.9197 15.748 10.912 15.6916 10.9146C15.6352 10.9171 15.5789 10.9171 15.5199 10.9146C15.4635 10.912 15.5199 10.9171 15.4789 10.9094C15.4455 10.9043 15.4148 10.8966 15.3815 10.8889C15.3251 10.8761 15.2687 10.8582 15.2148 10.8377C15.143 10.812 15.1584 10.8197 15.0892 10.7838C14.9764 10.73 14.8713 10.6659 14.7688 10.5967C14.6508 10.5172 14.6098 10.4865 14.5098 10.4019C14.356 10.2711 14.2099 10.1301 14.074 9.98143C14.0228 9.92759 13.9741 9.8712 13.9279 9.8148C13.9023 9.78147 13.8331 9.69431 13.91 9.79429C13.8254 9.68406 13.6895 9.62509 13.5588 9.702C13.4511 9.76609 13.3819 9.94298 13.4665 10.0532C13.7151 10.3788 14.01 10.6659 14.3355 10.9146C14.8226 11.2863 15.4789 11.5837 16.0864 11.3401C16.3351 11.2401 16.6863 11.0427 16.6991 10.7479C16.7068 10.5685 16.6812 10.3813 16.6376 10.207C16.5684 9.93785 16.4351 9.68149 16.2402 9.48153C16.1223 9.36361 15.9813 9.26363 15.8301 9.19442C15.748 9.15596 15.6609 9.12264 15.5737 9.097C15.5276 9.08418 15.4789 9.07137 15.4327 9.06368C15.4097 9.05855 15.3891 9.05598 15.3661 9.05086C15.3507 9.04829 15.202 9.02779 15.261 9.03548C15.2994 9.0406 15.2379 9.03035 15.2302 9.03035C15.1687 9.02009 15.1097 9.0124 15.0482 9.00984C14.8918 8.99959 14.7354 9.01497 14.5816 9.04317C14.1176 9.12776 13.7331 9.40976 13.469 9.79429C13.3896 9.90965 13.4485 10.0788 13.5613 10.1455C13.6921 10.2147 13.8382 10.1634 13.9151 10.0506Z" fill="#FCF8ED"/>
<path d="M13.1587 15.5571C13.1741 15.5341 13.1895 15.511 13.2074 15.4879C13.2254 15.4648 13.2408 15.4392 13.2587 15.4161C13.269 15.4033 13.2792 15.3879 13.2895 15.3751C13.3279 15.3239 13.2587 15.4136 13.3023 15.3572C13.4484 15.1752 13.6048 15.0008 13.7714 14.8393C14.2175 14.4112 14.7507 14.06 15.3737 13.937C16.0351 13.8062 16.7913 14.0241 17.2938 14.4548C17.4117 14.5574 17.5219 14.6676 17.6219 14.7881C17.6962 14.8778 17.786 15.0034 17.8629 15.1342C17.9372 15.2598 18.0064 15.3879 18.0654 15.5212C18.0987 15.5956 18.0885 15.57 18.1218 15.6546C18.1474 15.7161 18.1705 15.7802 18.191 15.8443C18.2679 16.0673 18.3269 16.298 18.3653 16.5313C18.373 16.5697 18.3781 16.6082 18.3833 16.6467C18.3935 16.7133 18.3781 16.6005 18.3807 16.6338C18.3833 16.6467 18.3833 16.662 18.3858 16.6749C18.3884 16.7005 18.391 16.7261 18.3935 16.7518C18.5525 16.7082 18.7114 16.6646 18.8703 16.6236C18.5909 16.2544 18.2295 15.9468 17.8552 15.6802C17.0502 15.1085 16.0838 14.7753 15.0942 14.7522C14.3303 14.7342 13.5689 14.9009 12.8614 15.1803C12.7332 15.2316 12.6435 15.3521 12.6819 15.4956C12.7152 15.6187 12.8691 15.7263 12.9972 15.6751C14.0893 15.2418 15.2583 15.1188 16.3683 15.4879C16.5965 15.5648 16.74 15.6238 16.9502 15.7315C17.1323 15.8237 17.3091 15.9263 17.4783 16.0417C17.5527 16.0904 17.6245 16.1416 17.6962 16.1955C17.7116 16.2083 17.7296 16.2211 17.7449 16.2314C17.768 16.2493 17.7347 16.2237 17.7321 16.2211C17.7424 16.2288 17.7526 16.2365 17.7629 16.2442C17.7937 16.2698 17.827 16.2954 17.8577 16.3211C17.9654 16.4108 18.068 16.5031 18.1654 16.6005C18.2423 16.6749 18.3166 16.7543 18.3858 16.8364C18.4115 16.8671 18.5038 16.985 18.4243 16.8799C18.4935 16.9722 18.5935 17.0312 18.714 16.9979C18.8165 16.9697 18.9088 16.862 18.9011 16.7518C18.837 15.834 18.4397 14.8573 17.7808 14.2138C17.2117 13.6575 16.4016 13.3371 15.6044 13.3909C14.8481 13.4448 14.1688 13.8037 13.6022 14.2882C13.2664 14.5779 12.9434 14.9214 12.705 15.2957C12.5384 15.5776 12.9819 15.834 13.1587 15.5571Z" fill="#FCF8ED"/>
<path d="M18.4013 11.3862C18.409 11.3554 18.4218 11.3247 18.4321 11.2939C18.4372 11.2811 18.4423 11.2657 18.4475 11.2529C18.4167 11.3349 18.4398 11.2683 18.45 11.2478C18.4705 11.2042 18.491 11.1632 18.5141 11.1222C18.5397 11.076 18.5654 11.0324 18.5961 10.9914C18.6038 10.9786 18.6525 10.9145 18.6346 10.9376C18.6141 10.9632 18.6397 10.9299 18.6474 10.9248C18.6577 10.9119 18.6705 10.8991 18.6807 10.8863C18.7243 10.8376 18.7705 10.794 18.8192 10.7504C18.8294 10.7402 18.8422 10.7299 18.8551 10.7222C18.8192 10.7504 18.8499 10.7274 18.8576 10.7222C18.8909 10.6992 18.9217 10.6787 18.955 10.6607C19.0345 10.6171 19.0422 10.6146 19.1063 10.5941C19.1447 10.5812 19.1806 10.571 19.2191 10.5633C19.2678 10.553 19.2934 10.5505 19.3165 10.5479C19.4754 10.5377 19.6164 10.5556 19.7702 10.5889C19.819 10.5992 19.8677 10.6094 19.9164 10.6248C19.96 10.6376 20.0035 10.6556 20.0471 10.671C20.1009 10.6915 20.0189 10.6556 20.0856 10.6863C20.1189 10.7017 20.1497 10.7171 20.1804 10.7351C20.4855 10.9017 20.6983 11.1683 20.788 11.5426C20.8264 11.4452 20.8675 11.3503 20.9059 11.2529C20.8367 11.2965 20.7649 11.3349 20.6931 11.3708C20.6162 11.4118 20.5368 11.4503 20.4573 11.4862C20.4137 11.5067 20.3701 11.5272 20.324 11.5451C20.3701 11.5246 20.3086 11.5503 20.2932 11.558C20.265 11.5682 20.2368 11.581 20.2086 11.5913C20.0958 11.6323 19.983 11.6708 19.8677 11.7041C19.8113 11.7195 19.7549 11.7323 19.6985 11.7451C19.6446 11.7554 19.5472 11.7733 19.5241 11.7759C19.4498 11.7861 19.296 11.7938 19.1909 11.7887C19.1576 11.7861 19.1268 11.7836 19.096 11.781C19.1422 11.7861 19.073 11.7759 19.0576 11.7733C18.9986 11.763 18.9422 11.7451 18.8858 11.7272C18.8704 11.722 18.8551 11.7169 18.8422 11.7118C18.8756 11.7246 18.8422 11.7118 18.8269 11.7041C18.7987 11.6887 18.7705 11.6759 18.7423 11.6579C18.7243 11.6477 18.6705 11.6118 18.6782 11.6169C18.6807 11.6195 18.6269 11.5733 18.609 11.5554C18.5526 11.5016 18.5295 11.4708 18.4962 11.4247C18.4475 11.3503 18.4064 11.2708 18.3705 11.1914C18.3141 11.0658 18.1296 11.035 18.0193 11.0991C17.8886 11.176 17.8707 11.3221 17.927 11.4503C18.186 12.0348 18.7474 12.3296 19.3729 12.3014C19.8907 12.2758 20.3932 12.0912 20.8546 11.863C20.9572 11.8118 21.0623 11.7579 21.1597 11.6964C21.2597 11.6349 21.3058 11.5195 21.2776 11.4067C21.1136 10.7427 20.5829 10.2454 19.9189 10.0993C19.5729 10.025 19.2191 9.99675 18.8833 10.1301C18.5679 10.2557 18.3193 10.4787 18.1347 10.7607C18.0373 10.9094 17.9501 11.0811 17.904 11.2555C17.8194 11.5708 18.3141 11.7066 18.4013 11.3862Z" fill="#FCF8ED"/>
</svg>
