<svg width="23" height="20" viewBox="0 0 23 20" fill="none" xmlns="http://www.w3.org/2000/svg">
<path d="M6.76655 6.60525C6.83742 6.66459 6.92795 6.69524 7.0203 6.69116C7.11265 6.68707 7.20012 6.64856 7.26548 6.58319C7.33085 6.51783 7.36937 6.43036 7.37345 6.33801C7.37753 6.24566 7.34688 6.15513 7.28754 6.08426C7.10785 5.90349 7.00699 5.65896 7.00699 5.40407C7.00699 5.14918 7.10785 4.90465 7.28754 4.72388C7.60648 4.40485 7.78564 3.9722 7.78564 3.52109C7.78564 3.06998 7.60648 2.63733 7.28754 2.3183C7.25345 2.28388 7.21288 2.25655 7.16817 2.2379C7.12346 2.21926 7.07549 2.20966 7.02705 2.20966C6.9786 2.20966 6.93064 2.21926 6.88592 2.2379C6.84121 2.25655 6.80064 2.28388 6.76655 2.3183C6.73203 2.35266 6.70464 2.39351 6.68595 2.43849C6.66726 2.48347 6.65764 2.53169 6.65764 2.5804C6.65764 2.62911 6.66726 2.67734 6.68595 2.72232C6.70464 2.7673 6.73203 2.80814 6.76655 2.84251C6.94527 3.02314 7.04551 3.26699 7.04551 3.52109C7.04551 3.77519 6.94527 4.01904 6.76655 4.19967C6.4484 4.51912 6.26978 4.95161 6.26978 5.40246C6.26978 5.85331 6.4484 6.2858 6.76655 6.60525Z" fill="#FCF8ED"/>
<path d="M14.8869 6.60525C14.9578 6.66459 15.0483 6.69524 15.1407 6.69116C15.233 6.68707 15.3205 6.64856 15.3858 6.58319C15.4512 6.51783 15.4897 6.43036 15.4938 6.33801C15.4979 6.24566 15.4672 6.15513 15.4079 6.08426C15.2282 5.90349 15.1273 5.65896 15.1273 5.40407C15.1273 5.14918 15.2282 4.90465 15.4079 4.72388C15.7268 4.40485 15.906 3.9722 15.906 3.52109C15.906 3.06998 15.7268 2.63733 15.4079 2.3183C15.3738 2.28388 15.3332 2.25655 15.2885 2.2379C15.2438 2.21926 15.1959 2.20966 15.1474 2.20966C15.099 2.20966 15.051 2.21926 15.0063 2.2379C14.9616 2.25655 14.921 2.28388 14.8869 2.3183C14.8524 2.35266 14.825 2.39351 14.8063 2.43849C14.7876 2.48347 14.778 2.53169 14.778 2.5804C14.778 2.62911 14.7876 2.67734 14.8063 2.72232C14.825 2.7673 14.8524 2.80814 14.8869 2.84251C15.0656 3.02314 15.1659 3.26699 15.1659 3.52109C15.1659 3.77519 15.0656 4.01904 14.8869 4.19967C14.5688 4.51912 14.3901 4.95161 14.3901 5.40246C14.3901 5.85331 14.5688 6.2858 14.8869 6.60525Z" fill="#FCF8ED"/>
<path d="M10.8251 4.39265C10.8588 4.42939 10.8995 4.45895 10.9449 4.47955C10.9903 4.50015 11.0393 4.51137 11.0891 4.51253C11.139 4.5137 11.1885 4.50478 11.2348 4.48632C11.2811 4.46786 11.3232 4.44024 11.3585 4.40511C11.3938 4.36999 11.4217 4.32808 11.4405 4.28191C11.4592 4.23573 11.4684 4.18625 11.4676 4.13643C11.4667 4.08661 11.4558 4.03747 11.4355 3.99197C11.4152 3.94647 11.3859 3.90555 11.3493 3.87166C11.1696 3.69089 11.0688 3.44636 11.0688 3.19147C11.0688 2.93658 11.1696 2.69205 11.3493 2.51128C11.5071 2.35358 11.6323 2.16633 11.7178 1.96023C11.8032 1.75412 11.8471 1.5332 11.8471 1.3101C11.8471 1.08699 11.8032 0.866073 11.7178 0.659968C11.6323 0.453862 11.5071 0.26661 11.3493 0.108913C11.315 0.0743941 11.2741 0.0470029 11.2291 0.0283124C11.1842 0.00962192 11.1359 0 11.0872 0C11.0385 0 10.9903 0.00962192 10.9453 0.0283124C10.9003 0.0470029 10.8595 0.0743941 10.8251 0.108913C10.7907 0.143003 10.7634 0.183576 10.7447 0.228289C10.7261 0.273001 10.7165 0.320966 10.7165 0.369411C10.7165 0.417856 10.7261 0.465821 10.7447 0.510533C10.7634 0.555246 10.7907 0.595819 10.8251 0.629908C10.9154 0.718276 10.9869 0.823885 11.0355 0.940457C11.0841 1.05703 11.1088 1.18219 11.1081 1.30849C11.1079 1.56428 11.0061 1.80952 10.8251 1.99028C10.5072 2.30919 10.3286 2.74114 10.3286 3.19147C10.3286 3.64179 10.5072 4.07375 10.8251 4.39265Z" fill="#FCF8ED"/>
<path d="M20.5246 15.0634C20.1931 13.143 19.2863 11.3684 17.9241 9.97466C16.5619 8.58089 14.8086 7.63361 12.8962 7.25817C12.8994 7.19925 12.8994 7.1402 12.8962 7.08129C12.8962 6.5917 12.7017 6.12216 12.3556 5.77597C12.0094 5.42978 11.5398 5.23529 11.0502 5.23529C10.5607 5.23529 10.0911 5.42978 9.74493 5.77597C9.39874 6.12216 9.20425 6.5917 9.20425 7.08129C9.20107 7.1402 9.20107 7.19925 9.20425 7.25817C7.29777 7.63944 5.55151 8.5893 4.19551 9.98261C2.83951 11.3759 1.9374 13.1473 1.60801 15.0634C0.836165 15.5008 0 16.144 0 16.8644C0 18.7394 5.72451 20 11.0728 20C16.421 20 22.1455 18.7394 22.1455 16.8644C22.1391 16.144 21.2965 15.5008 20.5246 15.0634ZM11.0663 5.97497C11.3597 5.97497 11.6411 6.09153 11.8486 6.29901C12.0561 6.50648 12.1726 6.78787 12.1726 7.08129V7.14561H12.1212C11.9925 7.14561 11.8639 7.11988 11.7353 7.11023H11.5938C11.4201 7.11023 11.2432 7.11023 11.0663 7.11023C10.8894 7.11023 10.7126 7.11023 10.5389 7.11023H10.3974C10.2688 7.11023 10.1401 7.12953 10.0147 7.14561H9.96001V7.08129C9.96001 6.78787 10.0766 6.50648 10.284 6.29901C10.4915 6.09153 10.7729 5.97497 11.0663 5.97497ZM2.24157 15.8964C2.24157 15.8578 2.24157 15.816 2.24157 15.7742C2.24157 15.6552 2.26729 15.5362 2.28659 15.4204C2.56164 13.5381 3.43435 11.794 4.77601 10.4454C6.11767 9.0968 7.85723 8.21508 9.73811 7.93032C9.93428 7.90137 10.1337 7.87886 10.3331 7.86278H10.4585C10.8633 7.83705 11.2693 7.83705 11.6742 7.86278H11.7996C11.999 7.87886 12.1984 7.90137 12.3945 7.93032C14.2729 8.2181 16.0093 9.10108 17.3483 10.4494C18.6874 11.7977 19.5584 13.5401 19.8332 15.4204C19.8525 15.5362 19.8654 15.6552 19.8782 15.7742C19.8782 15.816 19.8782 15.8578 19.8782 15.8964C19.8782 16.0604 19.9039 16.218 19.9072 16.3884C14.0812 17.7328 8.02568 17.7328 2.19976 16.3884C2.21477 16.2255 2.2287 16.0615 2.24157 15.8964ZM11.0663 19.2636C4.75649 19.2636 0.730036 17.6877 0.730036 16.8644C0.730036 16.7229 0.906917 16.411 1.49223 16.0057C1.49383 16.0261 1.49383 16.0465 1.49223 16.0668C1.49223 16.2695 1.47294 16.4721 1.47294 16.6779V16.9705L1.75595 17.0381C4.81094 17.7684 7.94132 18.1365 11.0824 18.1347C14.2235 18.1365 17.3539 17.7684 20.4089 17.0381L20.6919 16.9705V16.6779C20.6919 16.4721 20.6919 16.2695 20.6694 16.0668V16.0057C21.2547 16.411 21.4316 16.7229 21.4316 16.8644C21.4026 17.6877 17.3762 19.2636 11.0663 19.2636Z" fill="#FCF8ED"/>
</svg>
