<svg width="15" height="20" viewBox="0 0 15 20" fill="none" xmlns="http://www.w3.org/2000/svg">
<path d="M13.9645 6.8772C14.2872 6.5824 14.4825 6.17842 14.4959 5.73925C14.5104 5.30615 14.3539 4.89246 14.0579 4.57704C13.768 4.26889 13.3773 4.08813 12.9564 4.06751C12.9624 4.0202 12.9661 3.9741 12.9673 3.928C12.9818 3.4949 12.8253 3.08242 12.5293 2.76578C12.2321 2.45036 11.8306 2.26839 11.3962 2.25383C11.0384 2.24776 10.6999 2.35452 10.4136 2.55591C9.96228 2.10825 9.30717 1.90201 8.66904 2.04031C8.69088 1.75764 8.64721 1.46891 8.54045 1.19959C8.15102 0.224204 7.03976 -0.253783 6.06438 0.135643C5.25398 0.459558 4.78328 1.29422 4.87912 2.12766C4.77357 2.15071 4.66924 2.18104 4.56733 2.22229C4.26647 2.34239 4.002 2.5365 3.7994 2.7852C3.37358 2.63962 2.90894 2.65053 2.48312 2.82038C1.50773 3.2098 1.03096 4.31985 1.42038 5.29645C1.42645 5.31343 1.43373 5.3292 1.44101 5.34619C1.35973 5.36681 1.27844 5.39229 1.19959 5.42383C0.224204 5.81325 -0.253783 6.9233 0.135643 7.8999C0.298207 8.30752 0.595432 8.63265 0.972726 8.84495L3.37115 19.7464C3.39542 19.8932 3.5228 20 3.67202 20H11.5843C11.7323 20 11.8597 19.8932 11.8839 19.7464L14.2981 8.8037L14.3236 8.64599C14.3661 8.60596 14.4025 8.55865 14.4219 8.49799C14.6172 7.89747 14.4158 7.2642 13.9645 6.8772ZM7.95691 8.32329C7.77858 8.11705 7.71064 7.83196 7.79678 7.56749C7.86107 7.3661 8.00059 7.20354 8.18863 7.10649C8.37667 7.01065 8.59019 6.99245 8.79157 7.05796C8.87528 7.08465 8.95414 7.12711 9.0245 7.18049C9.16887 7.29089 9.37147 7.27754 9.50006 7.15016C9.62866 7.02278 9.64564 6.82018 9.53646 6.6746C9.38481 6.46957 9.33992 6.20147 9.41757 5.96005C9.48308 5.75866 9.62259 5.59488 9.80942 5.49904C9.99746 5.40199 10.211 5.38501 10.4124 5.45052C10.82 5.58154 11.0493 6.02313 10.9243 6.43318C10.8891 6.55086 10.9146 6.67703 10.9923 6.77044C11.0699 6.86507 11.1912 6.91359 11.3113 6.90025C11.4217 6.88933 11.5309 6.90025 11.6364 6.933C11.8099 6.98881 11.9555 7.10042 12.055 7.25328C12.163 7.4207 12.3862 7.46922 12.5548 7.36125C12.755 7.23387 12.9976 7.20233 13.2233 7.27633C13.637 7.40978 13.865 7.85744 13.7316 8.27112C13.7255 8.28811 13.7292 8.30388 13.7255 8.32086C13.1286 8.32086 12.3377 8.32086 12.3377 8.32086H11.7299H7.95691V8.32329ZM6.13838 7.5129C6.08379 7.12104 5.88119 6.77408 5.56577 6.53509C5.26976 6.31065 4.90823 6.20511 4.54064 6.24029C4.53822 6.21238 4.53458 6.18448 4.53094 6.15658C4.47756 5.76473 4.27375 5.41776 3.95832 5.17877C3.94741 5.17028 3.93285 5.16421 3.92193 5.15572C3.93406 4.94705 4.01777 4.75052 4.16578 4.60009C4.32713 4.43631 4.54428 4.34532 4.77479 4.34411C5.24064 4.35382 5.63249 4.72019 5.64341 5.18726C5.64584 5.30979 5.71013 5.4214 5.81325 5.48691C5.91637 5.55121 6.04618 5.56091 6.15658 5.50996C6.26698 5.45901 6.38465 5.43353 6.50476 5.43353C6.70614 5.42504 6.89176 5.49783 7.04825 5.62279C7.20354 5.74896 7.4304 5.72348 7.55657 5.56941C7.72035 5.36924 7.96177 5.25277 8.22017 5.25156C8.45795 5.24185 8.66783 5.34133 8.82797 5.50147C8.78793 5.57669 8.75154 5.65433 8.72485 5.73804C8.6654 5.92001 8.64357 6.11048 8.65448 6.29731C8.3791 6.27426 8.10492 6.33127 7.85501 6.45987C7.4947 6.64427 7.22659 6.95848 7.10163 7.34427C6.99609 7.66939 7.00943 8.01272 7.12105 8.32329H6.71585H6.09713H6.00979C6.12746 8.07217 6.17842 7.79435 6.13838 7.5129ZM11.998 3.26439C12.1617 3.43909 12.2479 3.66595 12.2394 3.90616C12.2345 4.05659 12.1945 4.19732 12.1193 4.32713C12.0429 4.45936 12.0562 4.62678 12.1557 4.74446C12.2539 4.86092 12.4165 4.90338 12.5597 4.85121C12.6713 4.80997 12.7841 4.7942 12.9018 4.7942C13.1396 4.80269 13.3628 4.90217 13.5266 5.07686C13.6903 5.25156 13.7765 5.47963 13.768 5.71863C13.7595 5.98552 13.6333 6.23422 13.4222 6.398C13.3676 6.44046 13.3349 6.49748 13.3106 6.55571C13.0255 6.4902 12.7295 6.50597 12.4553 6.60666C12.2879 6.44167 12.0829 6.31672 11.8597 6.24393C11.8014 6.22573 11.7444 6.21117 11.6862 6.19904C11.6813 5.59974 11.3162 5.04411 10.7484 4.80754C11.0117 4.31863 11.0553 3.72782 10.843 3.19767C10.837 3.18311 10.8273 3.17098 10.8212 3.15642C10.9801 3.04117 11.1718 2.98173 11.372 2.98294C11.6134 2.98901 11.8342 3.0897 11.998 3.26439ZM2.75244 3.49611C3.07999 3.3663 3.44516 3.38814 3.75451 3.55677C3.92921 3.65261 4.14879 3.58831 4.24584 3.41483C4.37929 3.17705 4.5831 2.9975 4.83544 2.89681C4.9883 2.83615 5.14965 2.80946 5.31464 2.81431C5.4396 2.82523 5.55242 2.76215 5.624 2.66267C5.69558 2.56319 5.71135 2.4358 5.66889 2.32177C5.44202 1.72489 5.74046 1.04673 6.33249 0.810163C6.93543 0.568743 7.62208 0.864755 7.8635 1.4677C8.00423 1.81952 7.96419 2.22107 7.75796 2.54256C7.65969 2.69421 7.68881 2.89681 7.82589 3.01448C7.96298 3.13337 8.16558 3.13216 8.30267 3.01327C8.40336 2.92471 8.51618 2.85556 8.6375 2.80825C9.24044 2.56804 9.92709 2.86162 10.1685 3.46578C10.3384 3.8916 10.2449 4.37929 9.93073 4.7117C9.77545 4.73718 9.6238 4.77964 9.48065 4.85243C9.4212 4.88276 9.36904 4.92158 9.31444 4.95797C9.01843 4.68258 8.62416 4.52609 8.21774 4.52366C7.85258 4.52609 7.50562 4.65225 7.2278 4.8779C7.00337 4.76508 6.74618 4.71898 6.50112 4.70685C6.43197 4.70685 6.36282 4.7117 6.29488 4.72141C6.08622 4.07843 5.48449 3.61621 4.77115 3.61621C4.34654 3.61864 3.94741 3.78727 3.64897 4.08935C3.42817 4.31257 3.28259 4.59038 3.22193 4.89125C3.10304 4.87912 2.98415 4.87548 2.86284 4.89246C2.60929 4.92764 2.37636 5.03198 2.1774 5.18241C2.14707 5.13145 2.11795 5.0805 2.09612 5.0247C1.8547 4.42297 2.1495 3.73632 2.75244 3.49611ZM1.4677 6.09835C1.65089 6.02434 1.84257 5.99887 2.0391 6.02192C2.05244 6.02313 2.06457 6.0207 2.07792 6.0207C2.21865 6.06317 2.37636 6.0207 2.47099 5.89818C2.59109 5.74289 2.76578 5.6422 2.96232 5.61429C3.16128 5.5876 3.36023 5.63856 3.51916 5.75987C3.6793 5.8824 3.78363 6.05831 3.81032 6.25849C3.8273 6.38101 3.81275 6.5084 3.77028 6.62243C3.71691 6.7668 3.75815 6.92815 3.87583 7.02763C3.99351 7.12711 4.15971 7.14167 4.29316 7.06524C4.37929 7.0155 4.47271 6.98274 4.56976 6.9694C4.76993 6.94392 4.96646 6.99366 5.1266 7.11619C5.28674 7.23751 5.38986 7.41463 5.41776 7.61359C5.44809 7.83681 5.37894 8.05882 5.22608 8.22503C5.19939 8.25414 5.18119 8.28932 5.16542 8.3245H1.50288C1.4774 8.30388 1.45435 8.28204 1.42402 8.26991C1.14257 8.14374 0.922987 7.91688 0.80895 7.63057C0.569957 7.0252 0.865968 6.33855 1.4677 6.09835ZM3.92921 19.3898L1.59629 8.93351H3.85763L4.73232 19.3898H3.92921ZM7.27754 19.3898H5.34133L4.46664 8.93351H7.30787L7.27754 19.3898ZM7.88776 19.3898L7.91567 8.99781C7.94842 8.98325 7.97754 8.95778 8.00544 8.93351H10.6538L9.91496 19.3898H7.88776ZM11.3259 19.3898H10.5252L11.264 8.93351H13.66L11.3259 19.3898Z" fill="#FCF8ED"/>
</svg>
