<svg width="19" height="20" viewBox="0 0 19 20" fill="none" xmlns="http://www.w3.org/2000/svg">
<path d="M18.9128 3.37984C18.9165 3.23524 18.8619 3.09546 18.7612 2.99157C18.6605 2.8882 18.5224 2.82983 18.3778 2.82983C14.7912 2.82983 14.6879 0.620163 14.6852 0.530727C14.6825 0.236711 14.4436 0 14.1496 0H4.82094C4.52692 0 4.28807 0.236711 4.28539 0.530727C4.28485 0.624447 4.22327 2.82983 0.592257 2.82983C0.296635 2.82983 0.0567102 3.08047 0.0567102 3.37609C0.0567102 3.41251 0.0513548 3.48105 0.0454638 3.57852C-0.435993 11.1522 2.92456 17.1209 9.26651 19.9534C9.3356 19.9845 9.41057 20 9.48501 20C9.55945 20 9.6339 19.9845 9.70352 19.9534C16.0465 17.1198 19.4071 11.1512 18.9246 3.57745C18.9181 3.48106 18.9133 3.41251 18.9128 3.37984ZM9.48501 18.8764C1.74904 15.2941 0.88306 8.06534 1.10103 3.887C4.20291 3.71509 5.04479 1.97081 5.2724 1.07109H13.6982C13.9258 1.97081 14.7676 3.71509 17.8695 3.887C18.088 8.06534 17.2215 15.2941 9.48501 18.8764Z" fill="#FCF8ED"/>
<path d="M9.48503 5.54077C6.30817 5.54077 3.82859 8.82582 3.72469 8.96613C3.58331 9.15571 3.58331 9.41545 3.72469 9.60504C3.82859 9.74481 6.3087 13.0304 9.48503 13.0304C12.6614 13.0304 15.1415 9.74535 15.2454 9.60504C15.3868 9.41545 15.3868 9.15571 15.2454 8.96613C15.142 8.82582 12.6619 5.54077 9.48503 5.54077ZM9.48503 11.9593C7.37444 11.9593 5.51449 10.0581 4.84666 9.28585C5.51502 8.51359 7.37444 6.6124 9.48503 6.6124C11.5956 6.6124 13.4556 8.51359 14.1234 9.28585C13.4556 10.0576 11.5962 11.9593 9.48503 11.9593Z" fill="#FCF8ED"/>
<path d="M9.48498 7.53302C8.51885 7.53302 7.73267 8.3192 7.73267 9.28533C7.73267 10.2515 8.51885 11.0376 9.48498 11.0376C10.4511 11.0376 11.2373 10.2515 11.2373 9.28533C11.2373 8.3192 10.4511 7.53302 9.48498 7.53302ZM9.48498 9.96654C9.10956 9.96654 8.80376 9.66075 8.80376 9.28533C8.80376 8.90991 9.10956 8.60411 9.48498 8.60411C9.86039 8.60411 10.1662 8.90991 10.1662 9.28533C10.1662 9.66075 9.86039 9.96654 9.48498 9.96654Z" fill="#FCF8ED"/>
</svg>
