<svg width="44" height="50" viewBox="0 0 44 50" fill="none" xmlns="http://www.w3.org/2000/svg">
<path d="M21.6038 1.13812e-08C9.71475 -0.000377526 -3.77537e-05 9.39197 1.10038e-10 21.0118C1.10038e-10 28.2784 3.29448 33.6606 7.44622 37.9984C11.5979 42.3361 16.6009 45.7894 20.4463 49.5222C20.7577 49.8284 21.1769 50 21.6136 50C22.0503 50 22.4695 49.8284 22.7809 49.5222C26.6263 45.7894 31.6357 42.3361 35.7874 37.9984C39.9392 33.6606 43.2337 28.2784 43.2337 21.0118C43.2337 9.39197 33.4929 -0.000377526 21.6038 1.13812e-08ZM21.6038 3.31667C31.746 3.31641 39.891 11.2457 39.891 21.0118C39.891 27.2983 37.2012 31.7115 33.3747 35.7095C29.8959 39.3441 25.5095 42.5482 21.6299 46.108C17.7469 42.5431 13.3354 39.3484 9.85244 35.7095C6.02594 31.7115 3.34265 27.2983 3.34265 21.0118C3.34263 11.2457 11.4616 3.31641 21.6038 3.31667ZM21.5774 16.6548C21.5275 16.6547 21.4776 16.6569 21.4279 16.6613C21.0199 16.7095 20.6441 16.9069 20.3728 17.2155C20.1015 17.524 19.9538 17.9218 19.9582 18.3327V24.9921C19.9375 25.2224 19.965 25.4544 20.039 25.6734C20.1129 25.8925 20.2317 26.0938 20.3877 26.2645C20.5437 26.4351 20.7335 26.5714 20.9451 26.6647C21.1566 26.7579 21.3853 26.806 21.6165 26.806C21.8477 26.806 22.0764 26.7579 22.288 26.6647C22.4996 26.5714 22.6894 26.4351 22.8454 26.2645C23.0014 26.0938 23.1202 25.8925 23.1941 25.6734C23.268 25.4544 23.2955 25.2224 23.2749 24.9921V18.3327C23.2766 18.1102 23.2337 17.8897 23.1488 17.684C23.0639 17.4784 22.9386 17.292 22.7803 17.1356C22.6221 16.9792 22.4341 16.856 22.2274 16.7734C22.0208 16.6909 21.7999 16.6504 21.5774 16.6548Z" fill="#FCF8ED"/>
</svg>
